<?xml version="1.0" encoding="UTF-8" standalone="no"?>
<svg width="40px" height="40px" viewBox="0 0 40 40" version="1.1" xmlns="http://www.w3.org/2000/svg" xmlns:xlink="http://www.w3.org/1999/xlink" xmlns:sketch="http://www.bohemiancoding.com/sketch/ns">
    <!-- Generator: Sketch 3.0.2 (7799) - http://www.bohemiancoding.com/sketch -->
    <title>icon-github</title>
    <description>Created with Sketch.</description>
    <defs></defs>
    <g id="Page-1" stroke="none" stroke-width="1" fill="none" fill-rule="evenodd" sketch:type="MSPage">
        <g id="icon-github" sketch:type="MSArtboardGroup" fill="#FFFFFF">
            <path d="M20,40 C31.0456955,40 40,31.0456955 40,20 C40,8.95430446 31.0456955,0 20,0 C8.95430446,0 0,8.95430446 0,20 C0,31.0456955 8.95430446,40 20,40 Z M20,39 C30.4934108,39 39,30.4934108 39,20 C39,9.50658923 30.4934108,1 20,1 C9.50658923,1 1,9.50658923 1,20 C1,30.4934108 9.50658923,39 20,39 Z" id="Oval" fill-opacity="0.662081069" sketch:type="MSShapeGroup"></path>
            <path d="M20.0006143,37.9733895 C16.0170375,38 14.9937079,37.3333327 14.9937079,37.3333327 C14.9937079,37.3333327 15.02563,36.0881007 15.0158077,34.3773146 C9.45271494,35.6160295 8.2789527,31.6279718 8.2789527,31.6279718 C7.36916419,29.2588038 6.05789005,28.6281166 6.05789005,28.6281166 C4.24199638,27.3566715 6.19540195,27.3818486 6.19540195,27.3818486 C8.20283004,27.5266171 9.25872495,29.4954688 9.25872495,29.4954688 C11.0426962,32.6287628 13.9402683,31.7236449 15.0796525,31.1987017 C15.2613647,29.8743846 15.7782621,28.9705256 16.349182,28.458171 C11.9082845,27.9407809 7.239019,26.1808994 7.239019,18.3231167 C7.239019,16.0848697 8.01866233,14.2532334 9.29801406,12.8206546 C9.092974,12.3020057 8.40664232,10.2160804 9.49445962,7.39372391 C9.49445962,7.39372391 11.1728414,6.84234473 14.9937076,9.49601439 C16.5898278,9.04030831 18.300132,8.81371413 20.0006139,8.80490213 C21.699868,8.81371413 23.4101722,9.04030831 25.0075202,9.49601439 C28.8259308,6.84234473 30.5030848,7.39372391 30.5030848,7.39372391 C31.5933577,10.2160804 30.907026,12.3020057 30.7019859,12.8206546 C31.9837932,14.2532334 32.7572976,16.0848697 32.7572976,18.3231167 C32.7572976,26.2010411 28.0806655,27.9344866 23.6262623,28.4418058 C24.3445164,29.0750107 24.9841923,30.3263141 24.9841923,32.2397761 C24.9841923,34.9803069 24.9841913,37.3333327 24.9841913,37.3333327 C24.9841913,37.3333327 23.984191,37.946779 20.0006143,37.9733895 Z" id="Icon" sketch:type="MSShapeGroup"></path>
        </g>
    </g>
</svg>