<?xml version="1.0" encoding="UTF-8" standalone="no"?>
<svg width="40px" height="40px" viewBox="0 0 40 40" version="1.1" xmlns="http://www.w3.org/2000/svg" xmlns:xlink="http://www.w3.org/1999/xlink" xmlns:sketch="http://www.bohemiancoding.com/sketch/ns">
    <!-- Generator: Sketch 3.0.2 (7799) - http://www.bohemiancoding.com/sketch -->
    <title>icon-twitter</title>
    <description>Created with Sketch.</description>
    <defs></defs>
    <g id="Page-1" stroke="none" stroke-width="1" fill="none" fill-rule="evenodd" sketch:type="MSPage">
        <g id="icon-twitter" sketch:type="MSArtboardGroup" fill="#FFFFFF">
            <path d="M20,40 C31.0456955,40 40,31.0456955 40,20 C40,8.95430446 31.0456955,0 20,0 C8.95430446,0 0,8.95430446 0,20 C0,31.0456955 8.95430446,40 20,40 Z M20,39 C30.4934108,39 39,30.4934108 39,20 C39,9.50658923 30.4934108,1 20,1 C9.50658923,1 1,9.50658923 1,20 C1,30.4934108 9.50658923,39 20,39 Z" id="Oval" fill-opacity="0.662081069" sketch:type="MSShapeGroup"></path>
            <path d="M30.156732,16.1396825 L30.1747712,16.7996825 C30.1747712,23.5425397 24.7780392,31.3168254 14.9015686,31.3168254 C11.8679739,31.3168254 9.04934641,30.4725397 6.66666667,29.0225397 C7.08607843,29.0725397 7.5145098,29.0939683 7.94594771,29.0939683 C10.4654248,29.0939683 12.777451,28.278254 14.6144444,26.9068254 C12.2663399,26.8711111 10.2835294,25.3953968 9.60555556,23.3725397 C9.93026144,23.4311111 10.2715033,23.4611111 10.6127451,23.4611111 C11.1043137,23.4611111 11.5793464,23.3996825 12.025817,23.2868254 C9.56496732,22.818254 7.71895425,20.7539683 7.71895425,18.278254 L7.71895425,18.2168254 C8.44503268,18.598254 9.27633987,18.828254 10.1497386,18.8539683 C8.71261438,17.9411111 7.75954248,16.378254 7.75954248,14.608254 C7.75954248,13.6739683 8.03013072,12.7968254 8.48712418,12.0411111 C11.1373856,15.1296825 15.0909804,17.158254 19.5556863,17.3753968 C19.4639869,17.0011111 19.4188889,16.6096825 19.4188889,16.2125397 C19.4188889,13.3953968 21.8166013,11.1111111 24.7900654,11.1111111 C26.3324183,11.1111111 27.7304575,11.7311111 28.7105882,12.7239683 C29.9312418,12.4939683 31.0812418,12.0696825 32.12,11.4839683 C31.7186275,12.6753968 30.8677778,13.6768254 29.7598693,14.308254 C30.8482353,14.1868254 31.8809804,13.9096825 32.8430719,13.5039683 C32.1169935,14.5225397 31.2075163,15.4225397 30.156732,16.1396825 L30.156732,16.1396825 Z" id="Shape" sketch:type="MSShapeGroup"></path>
        </g>
    </g>
</svg>