<?xml version="1.0" encoding="UTF-8" standalone="no"?>
<svg width="40px" height="40px" viewBox="0 0 40 40" version="1.1" xmlns="http://www.w3.org/2000/svg" xmlns:xlink="http://www.w3.org/1999/xlink" xmlns:sketch="http://www.bohemiancoding.com/sketch/ns">
    <!-- Generator: Sketch 3.0.2 (7799) - http://www.bohemiancoding.com/sketch -->
    <title>icon-rss</title>
    <description>Created with Sketch.</description>
    <defs></defs>
    <g id="Page-1" stroke="none" stroke-width="1" fill="none" fill-rule="evenodd" sketch:type="MSPage">
        <g id="icon-rss" sketch:type="MSArtboardGroup" fill="#FFFFFF">
            <path d="M20,40 C31.0456955,40 40,31.0456955 40,20 C40,8.95430446 31.0456955,0 20,0 C8.95430446,0 0,8.95430446 0,20 C0,31.0456955 8.95430446,40 20,40 Z M20,39 C30.4934108,39 39,30.4934108 39,20 C39,9.50658923 30.4934108,1 20,1 C9.50658923,1 1,9.50658923 1,20 C1,30.4934108 9.50658923,39 20,39 Z" id="Oval" fill-opacity="0.662081069" sketch:type="MSShapeGroup"></path>
            <path d="M15.7347312,28.4230466 C15.7347312,30.0067025 14.4506452,31.2905376 12.867491,31.2905376 C11.2843369,31.2905376 10,30.0067025 10,28.4230466 C10,26.8393907 11.2843369,25.5555556 12.867491,25.5555556 C14.4506452,25.5555556 15.7347312,26.8393907 15.7347312,28.4230466 Z M10.0035125,21.1942294 C12.6903584,21.1942294 15.2156272,22.2444803 17.1136559,24.1517921 C19.0146953,26.0616129 20.0614337,28.6039427 20.0614337,31.3106093 L24.2012186,31.3106093 C24.2012186,23.4497849 17.8322222,17.0544444 10.0035125,17.0544444 L10.0035125,21.1942294 Z M10.0095341,13.8552688 C19.5844803,13.8552688 27.374552,21.6877419 27.374552,31.3148746 L31.5143369,31.3148746 C31.5143369,19.4050896 21.8673835,9.71548387 10.0095341,9.71548387 L10.0095341,13.8552688 Z" id="Icon" sketch:type="MSShapeGroup"></path>
        </g>
    </g>
</svg>