<svg width="679" height="109" viewBox="0 0 679 109" xmlns="http://www.w3.org/2000/svg"><g fill="none"><path d="M66.8 50.7l5-2.6v-39.7h-3.8l-9.3 12.4h-1l.5-13.8h40.5l.6 13.8h-1.1l-9.2-12.4h-3.9v39.6l5 2.7v1.3h-23.2v-1.3h-.1zm37-1.8v-43.9l-3.8-1.5v-.9l14.2-2.5h1.5v20.8l.3-.4c3.411-2.888 7.731-4.482 12.2-4.5 6.2 0 9 3.5 9 10v23l3.3 1.7v1.3h-18.5v-1.3l3.4-1.8v-22.9c0-3.6-1.6-5-4.6-5-1.767-.037-3.495.527-4.9 1.6v26.4l3.3 1.8v1.2h-18.5v-1.2l3.1-1.9zm48.4-13.4c.4 7.2 3.6 12.8 11.4 12.8 3.7 0 6.3-1.7 8.8-3v1.5c-3.37 4.008-8.365 6.285-13.6 6.2-12 0-18-6.6-18-18.1 0-11.3 6.6-18.3 17.4-18.3 10.2 0 15.5 5 15.5 18.4v.4l-21.5.1zm-.2-1.7l10.5-.7c0-9-1.5-15-4.6-15-3.3 0-5.9 7-5.9 15.6v.1zm-152 35.8c0-19.1 12.7-26 26.8-26 6 0 11.6 1 14.8 2.3l.3 13.4h-1.4l-8.3-13c-1.655-.642-3.429-.915-5.2-.8-7.5 0-11.3 8.7-11.2 22.9.1 17 3 24.7 10 24.7 1.399.037 2.792-.201 4.1-.7v-18.2l-4.5-2.6v-1.6h22v1.7l-4.5 2.5v18c-5.363 1.891-11.013 2.839-16.7 2.8-16 0-26.2-7.5-26.2-25.4zm47.1-9v-1l14.9-2.6 1.6.1v29c0 3.6 1.7 4.6 4.5 4.6 1.854.048 3.626-.764 4.8-2.2v-26l-4-1.8v-1.2l14.7-2.5 1.4.2v33.3l4 1.6v1.1l-14.6 1.8-1.4-.1v-4.4h-.4c-3 2.846-6.965 4.453-11.1 4.5-7.1 0-10.5-4.2-10.5-10.5v-22l-3.9-1.9zm94.5-3.7l1.2.1v10.8h.4c1.6-7.9 5-10.8 9.3-10.8.614-.019 1.225.083 1.8.3v11c-.984-.22-1.992-.32-3-.3-2.752-.065-5.485.481-8 1.6v21.2l3.4 1.9v1.3h-19.3v-1.3l3.5-1.9v-29l-4-1.2v-1l14.7-2.7zm37.1.9v-11.3l-4-1.5v-.9l15-2.7 1.3.2v48.8l4.2 1.5v1.1l-14.8 2-1.1-.1v-4h-.4c-2.541 2.689-6.101 4.179-9.8 4.1-8 0-13.9-6.1-13.9-18.7 0-13.2 6.9-19.7 17.2-19.7 2.163-.069 4.314.341 6.3 1.2zm0 31.2v-29c-1.108-.946-2.547-1.414-4-1.3-4 .1-6.5 6.2-6.5 16.9 0 9.6 1.8 15 7 14.8 1.287.015 2.534-.448 3.5-1.3v-.1zm32.8-32h1.3v34l3.4 1.8v1.2h-19.2v-1.3l3.4-1.9v-28.4l-4-1.7v-1.1l15.1-2.6zm1.4-9.2c-.026 1.715-.739 3.348-1.98 4.533-1.241 1.184-2.905 1.821-4.62 1.767-2.251 0-4.331-1.201-5.456-3.15-1.125-1.949-1.125-4.351 0-6.3 1.125-1.949 3.205-3.15 5.456-3.15 3.552-.056 6.491 2.749 6.6 6.3zm46.3 43.1v-28.9l-4-1.4v-1.4l14.7-2.8 1.5.2v4.3h.4c3.479-2.997 7.908-4.662 12.5-4.7 6.4 0 9.3 3 9.3 9.8v24.8l3.4 1.9v1.3h-19.2v-1.3l3.5-1.9v-24c0-3.8-1.6-5.3-4.7-5.3-1.811-.016-3.574.584-5 1.7v27.6l3.3 1.9v1.3h-19.1v-1.3l3.4-1.8zm-21.3-18v-4.9c0-7.3-1.5-9.6-6-9.6-.533-.036-1.067-.036-1.6 0l-8 11h-1.1v-10c4.344-1.512 8.901-2.322 13.5-2.4 9.8 0 15.5 2.7 15.5 11v23.5l3.5 1v.9c-2.229 1.124-4.704 1.674-7.2 1.6-4.9 0-7.2-1.6-8.3-4.2h-.3c-2 2.8-5 4.3-9.6 4.3-5.8 0-9.8-3.6-9.8-9.9 0-6 3.8-9.4 11.5-10.8l7.9-1.5zm0 16.2v-14.6l-2.4.2c-3.9.3-5.2 2.7-5.2 8.2 0 5.9 1.9 7.4 4.6 7.4 1.15.072 2.266-.411 3-1.3v.1zm-128.2-16.4v-4.7c0-7.3-1.6-9.7-6.1-9.7-.504.035-1.005.101-1.5.2l-8.1 10.7h-1v-10c4.318-1.468 8.84-2.244 13.4-2.3 9.8 0 15.5 2.7 15.5 11v23.5l3.5 1v.9c-2.229 1.124-4.704 1.674-7.2 1.6-4.9 0-7.2-1.6-8.3-4.2h-.3c-2 2.8-5 4.3-9.5 4.3-5.9 0-9.8-3.6-9.8-9.9 0-6 3.7-9.4 11.4-10.8l8-1.6zm0 16.3v-14.5l-2.5.2c-3.8.3-5.2 2.7-5.2 8.2 0 5.9 2 7.4 4.6 7.4 1.15.072 2.266-.411 3-1.3h.1z" fill="#fff" fill-rule="nonzero"/><path d="M340.718 45.693c13.802 0 24.589 6.834 24.589 23.383 0 17.219-11.189 24.924-24.388 24.924h-22.713v-1.139l4.489-.938v-44.22l-4.489-.871v-1.139h22.512zm-.536 47.101c6.834 0 9.581-4.288 9.581-22.78 0-19.497-3.082-23.115-9.983-23.115h-2.948v45.895h3.35zm61.975-18.425h-21.976c.469 9.045 3.35 14.606 12.73 14.606 3.082 0 5.695-.402 8.174-1.474v1.072c-2.077 3.149-7.169 6.432-14.472 6.432-12.395 0-18.76-7.504-18.76-19.497 0-11.725 6.968-19.028 18.224-19.028 11.323 0 16.08 6.03 16.08 16.951v.938zm-16.348-16.616c-3.484 0-5.628 4.69-5.628 15.276l10.385-.469c0-11.524-1.541-14.807-4.757-14.807zm56.749.67l-4.221 2.747-10.854 32.83h-7.37l-12.931-33.902-3.082-1.675v-1.139h20.703v1.139l-4.221 1.608 8.509 23.919h.335l7.638-22.78-5.159-2.747v-1.139h10.653v1.139zm35.845 15.946h-21.976c.469 9.045 3.35 14.606 12.73 14.606 3.082 0 5.695-.402 8.174-1.474v1.072c-2.077 3.149-7.169 6.432-14.472 6.432-12.395 0-18.76-7.504-18.76-19.497 0-11.725 6.968-19.028 18.224-19.028 11.323 0 16.08 6.03 16.08 16.951v.938zm-16.348-16.616c-3.484 0-5.628 4.69-5.628 15.276l10.385-.469c0-11.524-1.541-14.807-4.757-14.807zm18.894-14.539l14.874-2.144 1.474.201v50.518l3.819 1.072v1.139h-19.899v-1.139l3.819-1.072v-45.895l-4.087-1.541v-1.139zm40.669 51.791c-11.189 0-18.827-7.571-18.827-19.497 0-11.792 7.504-19.095 18.76-19.095 11.256 0 18.894 7.303 18.894 19.162 0 11.926-7.504 19.43-18.827 19.43zm0-37.386c-3.685 0-5.628 3.551-5.628 17.956 0 14.472 1.943 18.224 5.695 18.224 3.685 0 5.561-3.819 5.561-18.291 0-14.405-1.809-17.889-5.628-17.889zm60.032 16.951c0 14.405-7.906 20.301-17.085 20.301-2.747 0-5.092-.402-6.164-.804v12.194l4.355.938v1.139h-20.435v-1.139l3.819-.938v-44.756l-4.02-1.608v-1.139l14.807-2.144 1.407.134v4.221h.402c1.876-2.211 5.36-4.556 10.318-4.556 7.035 0 12.596 4.824 12.596 18.157zm-12.797 1.34c0-11.189-2.412-14.405-6.566-14.405-1.541 0-2.881.335-3.886.737v29.614c.871.67 2.01 1.273 3.685 1.273 4.221 0 6.767-4.355 6.767-17.219zm49.714-1.541h-21.976c.469 9.045 3.35 14.606 12.73 14.606 3.082 0 5.695-.402 8.174-1.474v1.072c-2.077 3.149-7.169 6.432-14.472 6.432-12.395 0-18.76-7.504-18.76-19.497 0-11.725 6.968-19.028 18.224-19.028 11.323 0 16.08 6.03 16.08 16.951v.938zm-16.348-16.616c-3.484 0-5.628 4.69-5.628 15.276l10.385-.469c0-11.524-1.541-14.807-4.757-14.807zm18.894 1.005l14.807-2.144 1.206.134v10.452h.335c1.876-7.973 4.958-10.988 9.112-10.988.67 0 1.407.067 1.809.268v11.055c-.67-.201-1.876-.268-3.015-.268-3.35 0-5.829.335-7.973 1.206v23.383l4.958 1.005v1.139h-21.038v-1.139l3.819-1.005v-30.351l-4.02-1.608v-1.139zm47.034 11.189c6.901 3.216 10.519 6.097 10.519 12.797 0 7.571-5.293 12.127-15.075 12.127-4.422 0-8.978-.536-12.529-1.876l-.402-10.854h1.139l9.581 11.189c.67.201 1.407.335 2.01.335 4.087 0 5.963-2.211 5.963-5.628 0-3.015-1.608-4.154-5.829-6.164l-2.211-1.005c-6.7-3.149-10.586-6.432-10.586-12.596 0-7.504 5.226-11.926 14.204-11.926 3.685 0 7.705.335 10.787 1.206l.335 10.117h-1.139l-7.303-9.782c-.804-.268-1.608-.402-2.345-.402-3.618 0-5.226 2.077-5.226 5.092 0 3.283 1.541 4.355 6.03 6.432l2.077.938z" fill="#0CB9D4"/></g></svg>
