<?xml version="1.0" encoding="UTF-8" standalone="no"?>
<svg width="144px" height="28px" viewBox="0 0 144 28" version="1.1" xmlns="http://www.w3.org/2000/svg" xmlns:xlink="http://www.w3.org/1999/xlink" xmlns:sketch="http://www.bohemiancoding.com/sketch/ns">
    <title>logo-guardian-small</title>
    <description>Created with Sketch (http://www.bohemiancoding.com/sketch)</description>
    <defs></defs>
    <g id="Page-1" stroke="none" stroke-width="1" fill="none" fill-rule="evenodd" sketch:type="MSPage">
        <path d="M2.064,16.328 C2.064,19.184 3.312,20.36 5.976,20.36 C7.368,20.36 8.88,20 9.624,19.568 L9.624,17.84 C9.288,17.888 8.664,17.936 8.184,17.936 C6.888,17.936 6.528,17.264 6.528,15.944 L6.528,8.864 L9.456,8.864 L9.456,6.56 L6.528,6.56 L6.528,3.416 L2.064,4.04 L2.064,6.56 L0,6.848 L0,8.864 L2.064,8.864 L2.064,16.328 Z M9.864,20 L17.208,20 L17.208,18.776 L15.792,18.104 L15.792,9.272 C16.344,9.056 16.944,8.912 17.616,8.912 C18.84,8.912 19.416,9.416 19.416,10.808 L19.416,18.104 L18,18.776 L18,20 L25.344,20 L25.344,18.776 L23.88,18.104 L23.88,9.8 C23.88,7.328 22.752,6.224 20.52,6.224 C18.696,6.224 17.064,6.872 15.864,7.976 L15.72,7.976 L15.72,0.488 L15.36,0.488 L9.792,1.376 L9.792,2.552 L11.328,3.248 L11.328,18.104 L9.864,18.776 L9.864,20 Z M38.448,13.688 C38.448,8.048 36.504,6.248 32.472,6.248 C28.464,6.248 25.848,8.816 25.848,13.256 C25.848,17.816 28.224,20.36 32.832,20.36 C35.304,20.36 37.32,19.256 37.944,18.392 L37.944,17.096 C37.008,17.384 36.048,17.552 34.344,17.552 C31.896,17.552 30.648,16.304 30.432,13.688 L38.448,13.688 Z M32.4,7.712 C33.504,7.712 34.104,8.288 34.104,11.864 L30.384,12.08 C30.432,8.504 31.176,7.712 32.4,7.712 Z" id="the" fill-opacity="0.75" fill="#FFFFFF" sketch:type="MSShapeGroup"></path>
        <path d="M47.504,17.048 L42.704,17.048 C42.176,17.048 41.744,16.664 41.744,16.184 C41.744,15.824 42.008,15.44 42.344,15.2 C43.064,15.416 43.664,15.464 44.552,15.464 C48.008,15.464 50.384,13.904 50.384,10.976 C50.384,9.656 49.832,8.912 48.992,8.144 L48.992,8.048 L51.224,8.84 L51.536,8.84 L51.536,6.176 L51.272,6.176 L47.84,6.848 L47.648,6.848 C46.808,6.536 45.632,6.2 44.552,6.2 C41.096,6.2 38.696,7.928 38.696,10.832 C38.696,12.608 39.584,13.928 40.928,14.672 L40.928,14.816 C40.16,15.344 38.672,16.472 38.672,17.888 C38.672,18.944 39.368,19.976 40.808,20.288 L40.808,20.432 C39.296,20.744 37.592,21.248 37.592,23 C37.592,24.8 40.184,26.12 44.408,26.12 C49.664,26.12 51.944,24.104 51.944,20.912 C51.944,18.272 50.48,17.048 47.504,17.048 Z M44.528,24.44 C42.08,24.44 41.24,23.576 41.24,22.64 C41.24,21.992 41.408,21.536 41.768,21.128 L46.472,21.128 C47.576,21.128 48.08,21.464 48.08,22.16 C48.08,23.552 47.312,24.44 44.528,24.44 Z M44.552,7.736 C45.536,7.736 46.16,8.144 46.16,10.832 C46.16,13.52 45.512,13.808 44.552,13.808 C43.592,13.808 42.968,13.568 42.968,10.832 C42.968,8.096 43.592,7.736 44.552,7.736 Z M53.36,16.088 C53.36,18.416 54.512,20.36 57.224,20.36 C59.024,20.36 60.44,19.568 61.304,18.512 L61.472,18.512 L61.472,20.288 L61.832,20.288 L67.28,19.688 L67.28,18.536 L65.768,17.744 L65.768,6.248 L65.408,6.248 L59.816,7.136 L59.816,8.36 L61.304,9.056 L61.304,17.216 C60.848,17.408 60.44,17.528 59.696,17.528 C58.568,17.528 57.824,17.264 57.824,15.728 L57.824,6.248 L57.44,6.248 L51.848,7.136 L51.848,8.36 L53.36,9.056 L53.36,16.088 Z M71.696,8.024 C71.984,8 72.632,7.976 72.848,7.976 C74.576,7.976 75.08,8.84 75.08,10.544 L75.08,12.344 L72.512,12.776 C69.536,13.28 67.76,13.832 67.76,16.592 C67.76,18.824 69.248,20.36 71.624,20.36 C73.304,20.36 74.888,19.64 75.488,18.44 L75.608,18.44 C75.824,19.88 77.072,20.336 78.464,20.336 C79.544,20.336 80.552,20.024 80.984,19.784 L80.984,18.776 L79.568,18.104 L79.568,10.304 C79.568,7.28 77.408,6.224 73.808,6.224 C71.456,6.224 69.944,6.848 68.672,7.256 L68.672,10.76 L70.76,10.76 L71.696,8.024 Z M75.08,17.408 C74.84,17.672 74.336,17.912 73.856,17.912 C72.992,17.912 72.176,17.432 72.176,15.944 C72.176,14.672 73.016,13.976 74.048,13.88 L75.08,13.784 L75.08,17.408 Z M81.176,7.064 L81.176,8.288 L82.664,8.984 L82.664,18.08 L81.248,18.752 L81.248,20 L88.976,20 L88.976,18.752 L87.128,18.08 L87.128,10.616 C87.896,10.256 88.904,10.136 90.104,10.136 C90.488,10.136 90.968,10.184 91.232,10.256 L91.232,6.344 C91.088,6.296 90.8,6.272 90.56,6.272 C89.096,6.272 87.896,7.232 87.104,9.008 L86.96,9.008 L86.96,6.176 L86.576,6.176 L81.176,7.064 Z M100.304,6.824 C99.752,6.44 98.888,6.272 98.144,6.272 C94.592,6.272 91.592,8.216 91.592,13.64 C91.592,18.8 94.52,20.36 96.968,20.36 C98.648,20.36 99.8,19.616 100.352,18.896 L100.496,18.896 L100.496,20.288 L100.88,20.288 L106.184,19.688 L106.184,18.536 L104.768,17.744 L104.768,0.752 L104.408,0.752 L98.816,1.64 L98.816,2.864 L100.304,3.536 L100.304,6.824 Z M100.304,17.696 C99.992,17.816 99.608,17.936 98.936,17.936 C97.16,17.936 96.32,16.496 96.32,13.184 C96.32,9.392 97.376,8.12 98.792,8.12 C99.584,8.12 99.968,8.336 100.304,8.6 L100.304,17.696 Z M106.376,7.064 L106.376,8.288 L107.888,8.984 L107.888,18.08 L106.448,18.752 L106.448,20 L113.792,20 L113.792,18.752 L112.352,18.08 L112.352,6.176 L111.992,6.176 L106.376,7.064 Z M110.048,0.656 C108.728,0.656 107.672,1.712 107.672,3.032 C107.672,4.328 108.728,5.384 110.048,5.384 C111.344,5.384 112.424,4.328 112.424,3.032 C112.424,1.712 111.344,0.656 110.048,0.656 Z M118.232,8.024 C118.52,8 119.168,7.976 119.384,7.976 C121.112,7.976 121.616,8.84 121.616,10.544 L121.616,12.344 L119.048,12.776 C116.072,13.28 114.296,13.832 114.296,16.592 C114.296,18.824 115.784,20.36 118.16,20.36 C119.84,20.36 121.424,19.64 122.024,18.44 L122.144,18.44 C122.36,19.88 123.608,20.336 125,20.336 C126.08,20.336 127.088,20.024 127.52,19.784 L127.52,18.776 L126.104,18.104 L126.104,10.304 C126.104,7.28 123.944,6.224 120.344,6.224 C117.992,6.224 116.48,6.848 115.208,7.256 L115.208,10.76 L117.296,10.76 L118.232,8.024 Z M121.616,17.408 C121.376,17.672 120.872,17.912 120.392,17.912 C119.528,17.912 118.712,17.432 118.712,15.944 C118.712,14.672 119.552,13.976 120.584,13.88 L121.616,13.784 L121.616,17.408 Z M127.784,20 L135.128,20 L135.128,18.776 L133.712,18.104 L133.712,9.272 C134.264,9.056 134.864,8.912 135.536,8.912 C136.76,8.912 137.336,9.416 137.336,10.808 L137.336,18.104 L135.92,18.776 L135.92,20 L143.264,20 L143.264,18.776 L141.8,18.104 L141.8,9.8 C141.8,7.328 140.672,6.224 138.44,6.224 C136.616,6.224 134.984,6.872 133.784,7.976 L133.64,7.976 L133.64,6.224 L133.28,6.224 L127.712,7.112 L127.712,8.288 L129.248,8.984 L129.248,18.104 L127.784,18.776 L127.784,20 Z" id="guardian" fill="#FFFFFF" sketch:type="MSShapeGroup"></path>
    </g>
</svg>